<svg id="Слой_1" xmlns="http://www.w3.org/2000/svg" viewBox="0 0 25 23"><style>.st0{fill:#f4f6f8}</style><path id="Cart" class="st0" d="M24.8 6.7L20.5 16c-.3.8-1.1 1.3-1.9 1.3H5c-1.2 0-2.1-1-2.1-2.2V4.4L.3 1.8c-.2-.2-.3-.4-.3-.7C0 .5.5 0 1.1 0c.3 0 .6.1.8.3l3.3 3.3H23c1.2 0 2.1 1 2.1 2.2l-.3.9zM5 15.1h13.6l2.6-5.8H5v5.8zm17.9-9.3H5v1.4h17.2l.7-1.4zM5.7 18.7c1.2 0 2.2.9 2.2 2.1 0 1.2-1 2.2-2.2 2.2-1.2 0-2.2-.9-2.2-2.1.1-1.2 1-2.2 2.2-2.2zm11.4 0c1.2 0 2.2.9 2.2 2.1 0 1.2-.9 2.2-2.1 2.2-1.2 0-2.2-1-2.2-2.1 0-1.2 1-2.2 2.1-2.2z"/></svg>