<svg xmlns="http://www.w3.org/2000/svg" width="22" height="23" viewBox="0 0 22 23"><defs><style>.cls-1{fill:#7b74aa;fill-rule:evenodd;filter:url(#filter)}</style><filter id="filter" x="1421" y="10" width="22" height="23" filterUnits="userSpaceOnUse"><feFlood result="flood" flood-color="#f9f9f9"/><feComposite result="composite" operator="in" in2="SourceGraphic"/><feBlend result="blend" in2="SourceGraphic"/></filter></defs><path id="Profile" class="cls-1" d="M1437.27 22.649a8.922 8.922 0 0 0 1.33-4.743c0-4.367-2.95-7.906-6.6-7.906s-6.6 3.54-6.6 7.906a8.922 8.922 0 0 0 1.33 4.743c-3.41 1.587-5.73 4.658-5.73 8.195v.719a1.455 1.455 0 0 0 1.47 1.437h19.06a1.455 1.455 0 0 0 1.47-1.437v-.719c0-3.537-2.32-6.608-5.73-8.195zM1432 12.156c2.38 0 4.4 2.633 4.4 5.75s-2.02 5.75-4.4 5.75-4.4-2.633-4.4-5.75 2.02-5.75 4.4-5.75zm-8.8 18.688c0-2.852 2.05-5.318 5-6.478a5.713 5.713 0 0 0 7.6 0c2.95 1.16 5 3.626 5 6.478h-17.6z" transform="translate(-1421 -10)"/></svg>