<svg xmlns="http://www.w3.org/2000/svg" xmlns:xlink="http://www.w3.org/1999/xlink" width="32" height="78" viewBox="0 0 32 78"><svg id="cart" viewBox="0 0 25 23" width="25" height="23" y="0"><style>.st0{fill:#fff}</style><path id="Cart" class="st0" d="M24.8 6.7L20.5 16c-.3.8-1.1 1.3-1.9 1.3H5c-1.2 0-2.1-1-2.1-2.2V4.4L.3 1.8c-.2-.2-.3-.4-.3-.7C0 .5.5 0 1.1 0c.3 0 .6.1.8.3l3.3 3.3H23c1.2 0 2.1 1 2.1 2.2l-.3.9zM5 15.1h13.6l2.6-5.8H5v5.8zm17.9-9.3H5v1.4h17.2l.7-1.4zM5.7 18.7c1.2 0 2.2.9 2.2 2.1 0 1.2-1 2.2-2.2 2.2-1.2 0-2.2-.9-2.2-2.1.1-1.2 1-2.2 2.2-2.2zm11.4 0c1.2 0 2.2.9 2.2 2.1 0 1.2-.9 2.2-2.1 2.2-1.2 0-2.2-1-2.2-2.1 0-1.2 1-2.2 2.1-2.2z"></path></svg><svg id="profile" viewBox="0 0 22 23" width="22" height="23" y="23"><style>.st0{fill:#fff}</style><path id="Profile" class="st0" d="M16.3 12.6c.9-1.4 1.3-3.1 1.3-4.7C17.6 3.5 14.7 0 11 0S4.4 3.5 4.4 7.9c0 1.7.5 3.3 1.3 4.7C2.3 14.2 0 17.3 0 20.8v.7c0 .9.7 1.5 1.5 1.5h19.1c.8 0 1.5-.6 1.5-1.4v-.7c-.1-3.6-2.4-6.7-5.8-8.3zM11 2.2c2.4 0 4.4 2.6 4.4 5.8s-2 5.8-4.4 5.8S6.6 11 6.6 7.9s2-5.7 4.4-5.7zM2.2 20.8c0-2.9 2.1-5.3 5-6.5 2.2 1.9 5.4 1.9 7.6 0 2.9 1.2 5 3.6 5 6.5H2.2z"></path></svg><svg id="search" viewBox="0 0 32 32" width="32" height="32" y="46"><style>.st0{fill:#fff}</style><title></title><g id="Page-1"><g id="icon-111-search"><path id="search" class="st0" d="M19.4 21.4c-1.4 1-3.1 1.6-4.9 1.6C9.8 23 6 19.2 6 14.5S9.8 6 14.5 6 23 9.8 23 14.5c0 1.8-.6 3.5-1.6 4.9L27 25c.6.6.5 1.4 0 2-.5.5-1.4.5-2 0l-5.6-5.6zm-4.9-.4c3.6 0 6.5-2.9 6.5-6.5S18.1 8 14.5 8 8 10.9 8 14.5s2.9 6.5 6.5 6.5z"></path></g></g></svg></svg>