<svg xmlns="http://www.w3.org/2000/svg" xmlns:xlink="http://www.w3.org/1999/xlink" width="37.6" height="166" viewBox="0 0 37.6 166"><svg id="cart" viewBox="0 0 25 23" width="25" height="23" y="0"><style>.st0{fill:#f4f6f8}</style><path id="Cart" class="st0" d="M24.8 6.7L20.5 16c-.3.8-1.1 1.3-1.9 1.3H5c-1.2 0-2.1-1-2.1-2.2V4.4L.3 1.8c-.2-.2-.3-.4-.3-.7C0 .5.5 0 1.1 0c.3 0 .6.1.8.3l3.3 3.3H23c1.2 0 2.1 1 2.1 2.2l-.3.9zM5 15.1h13.6l2.6-5.8H5v5.8zm17.9-9.3H5v1.4h17.2l.7-1.4zM5.7 18.7c1.2 0 2.2.9 2.2 2.1 0 1.2-1 2.2-2.2 2.2-1.2 0-2.2-.9-2.2-2.1.1-1.2 1-2.2 2.2-2.2zm11.4 0c1.2 0 2.2.9 2.2 2.1 0 1.2-.9 2.2-2.1 2.2-1.2 0-2.2-1-2.2-2.1 0-1.2 1-2.2 2.1-2.2z"></path></svg><svg viewBox="0 0 37.6 38" width="37.6" height="38" id="cloze" y="23"><path d="M2.9.6L.1 3.4l15.8 15.8L0 35.2 2.8 38l16-15.9L34.7 38l2.8-2.8-15.9-15.9L37.5 3.4 34.7.6 18.8 16.4 2.9.6z"></path></svg><svg id="cloze-hover" viewBox="0 0 37.6 38" width="37.6" height="38" y="61"><style>.st0{fill:#da477b}</style><path class="st0" d="M2.9.6L.1 3.4l15.8 15.8L0 35.2 2.8 38l16-15.9L34.7 38l2.8-2.8-15.9-15.9L37.5 3.4 34.7.6 18.8 16.4 2.9.6z"></path></svg><svg id="profile" viewBox="0 0 22 23" width="22" height="23" y="99"><style>.st0{fill:#f4f6f8}</style><path id="Profile" class="st0" d="M16.3 12.6c.9-1.4 1.3-3.1 1.3-4.7C17.6 3.5 14.7 0 11 0S4.4 3.5 4.4 7.9c0 1.7.5 3.3 1.3 4.7C2.3 14.2 0 17.3 0 20.8v.7c0 .9.7 1.5 1.5 1.5h19.1c.8 0 1.5-.6 1.5-1.4v-.7c-.1-3.6-2.4-6.7-5.8-8.3zM11 2.2c2.4 0 4.4 2.6 4.4 5.8s-2 5.8-4.4 5.8S6.6 11 6.6 7.9s2-5.7 4.4-5.7zM2.2 20.8c0-2.9 2.1-5.3 5-6.5 2.2 1.9 5.4 1.9 7.6 0 2.9 1.2 5 3.6 5 6.5H2.2z"></path></svg><svg id="star" viewBox="0 0 21.8 22" width="21.8" height="22" y="122"><style>.st0{fill:#efc74c;stroke:#efc74c}</style><path id="yellow-star" class="st0" d="M16.1 13.9l1.2 7.6-6.4-3.6-6.4 3.6 1.2-7.6L.5 8.5l7.2-1.1L10.9.5l3.2 6.9 7.2 1.1-5.2 5.4z"></path></svg><svg id="star-default" viewBox="0 0 21.8 22" width="21.8" height="22" y="144"><style>.st0{fill:#c7cacf;stroke:#c7cacf}</style><path id="grey-star" class="st0" d="M16.1 13.9l1.2 7.6-6.4-3.6-6.4 3.6 1.2-7.6L.5 8.5l7.2-1.1L10.9.5l3.2 6.9 7.2 1.1-5.2 5.4z"></path></svg></svg>