<svg xmlns="http://www.w3.org/2000/svg" xmlns:xlink="http://www.w3.org/1999/xlink" width="25" height="23" viewBox="0 0 25 23">
  <metadata><?xpacket begin="﻿" id="W5M0MpCehiHzreSzNTczkc9d"?>
<x:xmpmeta xmlns:x="adobe:ns:meta/" x:xmptk="Adobe XMP Core 5.6-c138 79.159824, 2016/09/14-01:09:01        ">
   <rdf:RDF xmlns:rdf="http://www.w3.org/1999/02/22-rdf-syntax-ns#">
      <rdf:Description rdf:about=""/>
   </rdf:RDF>
</x:xmpmeta>
                                                                                                    
                                                                                                    
                                                                                                    
                                                                                                    
                                                                                                    
                                                                                                    
                                                                                                    
                                                                                                    
                                                                                                    
                                                                                                    
                                                                                                    
                                                                                                    
                                                                                                    
                                                                                                    
                                                                                                    
                                                                                                    
                                                                                                    
                                                                                                    
                                                                                                    
                                                                                                    
                           
<?xpacket end="w"?></metadata>
<defs>
    <style>
      .cls-1 {
        fill: #964768;
        fill-rule: evenodd;
        filter: url(#filter);
      }
    </style>
    <filter id="filter" x="1338" y="10" width="25" height="23" filterUnits="userSpaceOnUse">
      <feFlood result="flood" flood-color="#f9f9f9"/>
      <feComposite result="composite" operator="in" in2="SourceGraphic"/>
      <feBlend result="blend" in2="SourceGraphic"/>
    </filter>
  </defs>
  <path id="Cart" class="cls-1" d="M1362.8,16.652L1358.52,26a2.152,2.152,0,0,1-1.95,1.254H1343a2.149,2.149,0,0,1-2.14-2.156V14.4l-2.55-2.559a1.091,1.091,0,0,1-.31-0.762,1.071,1.071,0,0,1,1.83-.762l3.26,3.278h17.77A2.149,2.149,0,0,1,1363,15.75,2.1,2.1,0,0,1,1362.8,16.652ZM1343,25.094h13.57l2.64-5.75H1343v5.75Zm17.86-9.344H1343v1.437h17.2l0.66-1.439h0Zm-17.15,12.937a2.156,2.156,0,1,1-2.14,2.156A2.151,2.151,0,0,1,1343.71,28.687Zm11.43,0a2.156,2.156,0,1,1-2.14,2.156A2.151,2.151,0,0,1,1355.14,28.687Z" transform="translate(-1338 -10)"/>
</svg>
