<?xml version="1.0" encoding="utf-8"?>
<!-- Generator: Adobe Illustrator 21.0.2, SVG Export Plug-In . SVG Version: 6.00 Build 0)  -->
<svg version="1.1" id="Слой_1" xmlns="http://www.w3.org/2000/svg" xmlns:xlink="http://www.w3.org/1999/xlink" x="0px" y="0px"
	 viewBox="0 0 25 23" style="enable-background:new 0 0 25 23;" xml:space="preserve">
<style type="text/css">
	.st0{fill:#f4f6f8;}
</style>
<path id="Cart" class="st0" d="M24.8,6.7L20.5,16c-0.3,0.8-1.1,1.3-1.9,1.3H5c-1.2,0-2.1-1-2.1-2.2V4.4L0.3,1.8C0.1,1.6,0,1.4,0,1.1
	C0,0.5,0.5,0,1.1,0c0.3,0,0.6,0.1,0.8,0.3l3.3,3.3h17.8c1.2,0,2.1,1,2.1,2.2C25,6.1,24.9,6.4,24.8,6.7z M5,15.1h13.6l2.6-5.8H5V15.1
	z M22.9,5.8H5v1.4h17.2L22.9,5.8L22.9,5.8L22.9,5.8z M5.7,18.7c1.2,0,2.2,0.9,2.2,2.1C7.9,22,6.9,23,5.7,23c-1.2,0-2.2-0.9-2.2-2.1
	c0,0,0,0,0,0C3.6,19.7,4.5,18.7,5.7,18.7z M17.1,18.7c1.2,0,2.2,0.9,2.2,2.1c0,1.2-0.9,2.2-2.1,2.2C16,23,15,22,15,20.9c0,0,0,0,0,0
	C15,19.7,16,18.7,17.1,18.7z"/>
</svg>
