<?xml version="1.0" encoding="utf-8"?>
<!-- Generator: Adobe Illustrator 21.0.2, SVG Export Plug-In . SVG Version: 6.00 Build 0)  -->
<svg version="1.1" id="Слой_1" xmlns="http://www.w3.org/2000/svg" xmlns:xlink="http://www.w3.org/1999/xlink" x="0px" y="0px"
	 viewBox="0 0 22 23" style="enable-background:new 0 0 22 23;" xml:space="preserve">
<style type="text/css">
	.st0{fill:#f4f6f8;}
</style>
<path id="Profile" class="st0" d="M16.3,12.6c0.9-1.4,1.3-3.1,1.3-4.7C17.6,3.5,14.7,0,11,0S4.4,3.5,4.4,7.9c0,1.7,0.5,3.3,1.3,4.7
	C2.3,14.2,0,17.3,0,20.8v0.7C0,22.4,0.7,23,1.5,23h19.1c0.8,0,1.5-0.6,1.5-1.4v-0.7C22,17.3,19.7,14.2,16.3,12.6z M11,2.2
	c2.4,0,4.4,2.6,4.4,5.8s-2,5.8-4.4,5.8S6.6,11,6.6,7.9S8.6,2.2,11,2.2z M2.2,20.8c0-2.9,2.1-5.3,5-6.5c2.2,1.9,5.4,1.9,7.6,0
	c2.9,1.2,5,3.6,5,6.5H2.2z"/>
</svg>
